<svg width="1280" height="720" xmlns="http://www.w3.org/2000/svg" xmlns:xlink="http://www.w3.org/1999/xlink" overflow="hidden"><defs><clipPath id="clip0"><rect x="0" y="0" width="1280" height="720"/></clipPath><linearGradient x1="137" y1="6" x2="137" y2="712" gradientUnits="userSpaceOnUse" spreadMethod="reflect" id="fill1"><stop offset="0" stop-color="#FFFFFF"/><stop offset="0.4" stop-color="#F7E7E5"/><stop offset="0.75" stop-color="#CB4335"/><stop offset="1" stop-color="#570000"/></linearGradient><clipPath id="clip2"><rect x="289" y="23" width="22" height="22"/></clipPath><clipPath id="clip3"><rect x="289" y="23" width="22" height="22"/></clipPath><clipPath id="clip4"><rect x="289" y="23" width="22" height="22"/></clipPath><clipPath id="clip5"><rect x="496" y="22" width="23" height="22"/></clipPath><clipPath id="clip6"><rect x="496" y="22" width="23" height="22"/></clipPath><clipPath id="clip7"><rect x="496" y="22" width="23" height="22"/></clipPath><clipPath id="clip8"><rect x="997" y="22" width="22" height="23"/></clipPath><clipPath id="clip9"><rect x="997" y="22" width="22" height="23"/></clipPath><clipPath id="clip10"><rect x="997" y="22" width="22" height="23"/></clipPath><clipPath id="clip11"><rect x="715" y="22" width="22" height="22"/></clipPath><clipPath id="clip12"><rect x="715" y="22" width="22" height="22"/></clipPath><clipPath id="clip13"><rect x="715" y="22" width="22" height="22"/></clipPath><clipPath id="clip14"><rect x="55" y="98" width="23" height="23"/></clipPath><clipPath id="clip15"><rect x="55" y="98" width="23" height="23"/></clipPath><clipPath id="clip16"><rect x="55" y="98" width="23" height="23"/></clipPath></defs><g clip-path="url(#clip0)"><rect x="0" y="0" width="1280" height="720" fill="#EBC0BB"/><path d="M8 27.0194C8 15.4107 17.4107 6 29.0194 6L244.981 6C256.589 6 266 15.4107 266 27.0194L266 690.981C266 702.589 256.589 712 244.981 712L29.0194 712C17.4107 712 8 702.589 8 690.981Z" fill="url(#fill1)" fill-rule="evenodd"/><path d="M43 92.4218C43 90.532 44.532 89 46.4218 89L227.578 89C229.468 89 231 90.532 231 92.4218L231 127.578C231 129.468 229.468 131 227.578 131L46.4218 131C44.532 131 43 129.468 43 127.578Z" fill="#CB4335" fill-rule="evenodd"/><text fill="#CB4335" font-family="Arial,Arial_MSFontService,sans-serif" font-weight="700" font-size="19" transform="translate(37.7812 43)">ANÁLISIS DE VENTAS <tspan font-size="19" x="20.8333" y="23">POR CATEGORÍA</tspan><tspan fill="#FFFFFF" font-size="14" x="50.2109" y="72">Clientes</tspan><tspan font-size="14" x="278.878" y="-2">Año:</tspan><tspan font-size="14" x="984.067" y="-2">Categoría:</tspan><tspan font-size="14" x="705.368" y="-2">Logística:</tspan><tspan font-size="14" x="485.892" y="-2">Mes:</tspan></text><g clip-path="url(#clip2)"><g clip-path="url(#clip3)"><g clip-path="url(#clip4)"><path d="M290.1 27.4C290.1 26.19 291.09 25.2 292.3 25.2L307.7 25.2C308.915 25.2 309.9 26.185 309.9 27.4L309.9 42.8C309.9 44.0151 308.915 45 307.7 45L292.3 45C291.085 45 290.1 44.0151 290.1 42.8L290.1 27.4ZM292.3 29.6 292.3 42.8 307.7 42.8 307.7 29.6 292.3 29.6ZM294.5 23 296.7 23 296.7 25.2 294.5 25.2 294.5 23ZM303.3 23 305.5 23 305.5 25.2 303.3 25.2 303.3 23ZM294.5 32.9 296.7 32.9 296.7 35.1 294.5 35.1 294.5 32.9ZM294.5 37.3 296.7 37.3 296.7 39.5 294.5 39.5 294.5 37.3ZM298.9 32.9 301.1 32.9 301.1 35.1 298.9 35.1 298.9 32.9ZM298.9 37.3 301.1 37.3 301.1 39.5 298.9 39.5 298.9 37.3ZM303.3 32.9 305.5 32.9 305.5 35.1 303.3 35.1 303.3 32.9ZM303.3 37.3 305.5 37.3 305.5 39.5 303.3 39.5 303.3 37.3Z" fill="#CB4335"/></g></g></g><g clip-path="url(#clip5)"><g clip-path="url(#clip6)"><g clip-path="url(#clip7)"><path d="M1.1 4.4C1.1 3.19 2.09 2.2 3.3 2.2L18.7 2.2C19.9151 2.2 20.9 3.18497 20.9 4.4L20.9 19.8C20.9 21.0151 19.9151 22 18.7 22L3.3 22C2.08497 22 1.1 21.0151 1.1 19.8L1.1 4.4ZM3.3 6.6 3.3 19.8 18.7 19.8 18.7 6.6 3.3 6.6ZM5.5 0 7.7 0 7.7 2.2 5.5 2.2 5.5 0ZM14.3 0 16.5 0 16.5 2.2 14.3 2.2 14.3 0ZM5.5 9.9 7.7 9.9 7.7 12.1 5.5 12.1 5.5 9.9ZM5.5 14.3 7.7 14.3 7.7 16.5 5.5 16.5 5.5 14.3ZM9.9 9.9 12.1 9.9 12.1 12.1 9.9 12.1 9.9 9.9ZM9.9 14.3 12.1 14.3 12.1 16.5 9.9 16.5 9.9 14.3ZM14.3 9.9 16.5 9.9 16.5 12.1 14.3 12.1 14.3 9.9ZM14.3 14.3 16.5 14.3 16.5 16.5 14.3 16.5 14.3 14.3Z" fill="#CB4335" transform="matrix(1.04545 0 0 1 496 22)"/></g></g></g><g clip-path="url(#clip8)"><g clip-path="url(#clip9)"><g clip-path="url(#clip10)"><path d="M15.3643 9.62242C16.2767 9.62491 17.1522 9.26226 17.7955 8.61523L21.1041 5.30879C21.3658 5.04711 21.3898 4.62129 21.1406 4.34672 20.8856 4.06547 20.4508 4.04426 20.1695 4.29932 20.1612 4.30693 20.153 4.31471 20.145 4.32266L17.1961 7.26945C16.9899 7.47536 16.6559 7.47536 16.4497 7.26945 16.2439 7.06406 16.2551 6.71688 16.4605 6.51148L19.3965 3.57543C19.665 3.30693 19.665 2.87163 19.3965 2.60316 19.3887 2.59534 19.3807 2.58771 19.3725 2.58027 19.248 2.46742 19.0858 2.40533 18.9179 2.40625 18.7275 2.40638 18.5449 2.48212 18.4104 2.6168L15.4769 5.54984C15.2708 5.75575 14.9367 5.75575 14.7305 5.54984 14.5252 5.34445 14.5359 4.99727 14.7413 4.79187L17.6773 1.85668C17.9458 1.58818 17.9458 1.15288 17.6773 0.884409 17.6695 0.876588 17.6615 0.868957 17.6533 0.861523 17.5288 0.74867 17.3666 0.686576 17.1987 0.6875 17.0083 0.687723 16.8258 0.763443 16.6912 0.898047L13.3848 4.20449C12.7377 4.84795 12.375 5.72357 12.3776 6.63609L12.3776 6.98973C12.3777 7.17234 12.3052 7.34748 12.1761 7.47656L10.6459 9.00711C10.5789 9.07427 10.47 9.07431 10.4029 9.00724 10.4028 9.0072 10.4028 9.00715 10.4027 9.00711L2.95711 1.56105C2.68957 1.29321 2.25583 1.29206 1.98688 1.55848 1.3359 2.20344 0.988281 3.11395 0.988281 4.19117 0.983984 5.97008 1.91898 8.01539 3.42848 9.52273L7.10016 13.1944C7.62201 13.7152 8.32915 14.0077 9.06641 14.0078 9.30145 14.0079 9.53554 13.9779 9.76293 13.9184 9.82003 13.9035 9.87877 13.8958 9.93781 13.8957 10.1104 13.8957 10.2766 13.9609 10.4032 14.0783L10.8926 14.5303C11.0188 14.6593 11.0897 14.8324 11.0902 15.0129L11.0902 15.2509C11.089 15.792 11.3016 16.3118 11.6819 16.6968L15.5513 20.6314 15.5551 20.6357C16.4494 21.5299 17.8993 21.5298 18.7935 20.6355 19.6876 19.7412 19.6876 18.2914 18.7932 17.3972L12.9933 11.5973C12.9262 11.5302 12.9261 11.4214 12.9932 11.3542 12.9932 11.3541 12.9933 11.3541 12.9933 11.3541L14.5234 9.82395C14.6524 9.69491 14.8274 9.62238 15.0098 9.62242Z" fill="#CB4335" transform="matrix(1 0 0 1.04545 997 22)"/><path d="M9.06641 15.3828C7.96568 15.3805 6.91028 14.9444 6.12906 14.1689L5.53352 13.5734C5.39932 13.4396 5.18216 13.4396 5.04797 13.5734L1.39562 17.2068C0.744648 17.8578 0.512187 18.816 0.834453 19.7545 0.852491 19.8073 0.873873 19.859 0.898477 19.9091 1.33203 20.7969 2.17336 21.3125 3.09375 21.3125 3.73309 21.3141 4.34646 21.0597 4.79703 20.6061L9.66797 15.712C9.70948 15.6696 9.73023 15.6111 9.72469 15.5521L9.72469 15.5409C9.71687 15.4313 9.62169 15.3488 9.51208 15.3566 9.5092 15.3569 9.50628 15.3571 9.5034 15.3575 9.35829 15.3735 9.21241 15.382 9.06641 15.3828Z" fill="#CB4335" transform="matrix(1 0 0 1.04545 997 22)"/></g></g></g><g clip-path="url(#clip11)"><g clip-path="url(#clip12)"><g clip-path="url(#clip13)"><path d="M734.25 31.625 731.5 31.625 731.5 24.75 715 24.75 715 35.75 715 41.25 717.75 41.25C717.75 42.7694 718.981 44 720.5 44 722.019 44 723.25 42.7694 723.25 41.25L728.75 41.25C728.75 42.7694 729.981 44 731.5 44 733.019 44 734.25 42.7694 734.25 41.25L737 41.25 737 35.75 735.281 35.75 734.25 31.625Z" fill="#CB4335"/></g></g></g><g clip-path="url(#clip14)"><g clip-path="url(#clip15)"><g clip-path="url(#clip16)"><path d="M71.2917 105.667C71.2917 108.842 69.1464 111.417 66.5 111.417 63.8536 111.417 61.7083 108.842 61.7083 105.667 61.7083 102.491 63.8536 99.9167 66.5 99.9167 69.1464 99.9167 71.2917 102.491 71.2917 105.667Z" fill="#FFFFFF"/><path d="M75.8917 116.304C75.0292 114.579 73.4 113.142 71.2917 112.279 70.7167 112.088 70.0458 112.088 69.5667 112.375 68.6083 112.95 67.65 113.238 66.5 113.238 65.35 113.238 64.3917 112.95 63.4333 112.375 62.9542 112.183 62.2833 112.088 61.7083 112.375 59.6 113.238 57.9708 114.675 57.1083 116.4 56.4375 117.646 57.4917 119.083 58.9292 119.083L74.0708 119.083C75.5083 119.083 76.5625 117.646 75.8917 116.304Z" fill="#FFFFFF"/></g></g></g></g></svg>